<mxfile host="Electron" agent="Mozilla/5.0 (Macintosh; Intel Mac OS X 10_15_7) AppleWebKit/537.36 (KHTML, like Gecko) draw.io/26.2.15 Chrome/134.0.6998.205 Electron/35.2.1 Safari/537.36" version="26.2.15">
  <diagram name="Page-1" id="hePKUdum8BIHHCZ7u52M">
    <mxGraphModel dx="1003" dy="1833" grid="1" gridSize="10" guides="1" tooltips="1" connect="1" arrows="1" fold="1" page="1" pageScale="1" pageWidth="850" pageHeight="1100" math="0" shadow="0">
      <root>
        <mxCell id="0" />
        <mxCell id="1" parent="0" />
        <mxCell id="QNOvUItwXMUCAhQ9Vl6e-1" value="" style="endArrow=classic;html=1;rounded=0;sketch=1;hachureGap=4;jiggle=2;curveFitting=1;fontFamily=Architects Daughter;fontSource=https%3A%2F%2Ffonts.googleapis.com%2Fcss%3Ffamily%3DArchitects%2BDaughter;strokeWidth=3;dashed=1;" parent="1" source="QNOvUItwXMUCAhQ9Vl6e-74" edge="1">
          <mxGeometry width="50" height="50" relative="1" as="geometry">
            <mxPoint x="350" y="70" as="sourcePoint" />
            <mxPoint x="350" y="1170" as="targetPoint" />
          </mxGeometry>
        </mxCell>
        <mxCell id="QNOvUItwXMUCAhQ9Vl6e-4" value="" style="ellipse;whiteSpace=wrap;html=1;aspect=fixed;sketch=1;hachureGap=4;jiggle=2;curveFitting=1;fontFamily=Architects Daughter;fontSource=https%3A%2F%2Ffonts.googleapis.com%2Fcss%3Ffamily%3DArchitects%2BDaughter;fillColor=#f8cecc;strokeColor=#b85450;" parent="1" vertex="1">
          <mxGeometry x="50" y="-229" width="20" height="20" as="geometry" />
        </mxCell>
        <mxCell id="QNOvUItwXMUCAhQ9Vl6e-11" value="" style="ellipse;whiteSpace=wrap;html=1;aspect=fixed;sketch=1;hachureGap=4;jiggle=2;curveFitting=1;fontFamily=Architects Daughter;fontSource=https%3A%2F%2Ffonts.googleapis.com%2Fcss%3Ffamily%3DArchitects%2BDaughter;fillColor=#dae8fc;strokeColor=#6c8ebf;" parent="1" vertex="1">
          <mxGeometry x="50" y="-109" width="20" height="20" as="geometry" />
        </mxCell>
        <mxCell id="QNOvUItwXMUCAhQ9Vl6e-23" value="" style="endArrow=classic;html=1;rounded=0;sketch=1;hachureGap=4;jiggle=2;curveFitting=1;fontFamily=Architects Daughter;fontSource=https%3A%2F%2Ffonts.googleapis.com%2Fcss%3Ffamily%3DArchitects%2BDaughter;strokeWidth=3;dashed=1;" parent="1" target="QNOvUItwXMUCAhQ9Vl6e-22" edge="1">
          <mxGeometry width="50" height="50" relative="1" as="geometry">
            <mxPoint x="350" y="60" as="sourcePoint" />
            <mxPoint x="350" y="750" as="targetPoint" />
          </mxGeometry>
        </mxCell>
        <mxCell id="QNOvUItwXMUCAhQ9Vl6e-22" value="" style="ellipse;whiteSpace=wrap;html=1;aspect=fixed;sketch=1;hachureGap=4;jiggle=2;curveFitting=1;fontFamily=Architects Daughter;fontSource=https%3A%2F%2Ffonts.googleapis.com%2Fcss%3Ffamily%3DArchitects%2BDaughter;fillColor=#f8cecc;strokeColor=#b85450;" parent="1" vertex="1">
          <mxGeometry x="340" y="110" width="20" height="20" as="geometry" />
        </mxCell>
        <mxCell id="QNOvUItwXMUCAhQ9Vl6e-31" value="" style="endArrow=classic;html=1;rounded=0;sketch=1;hachureGap=4;jiggle=2;curveFitting=1;fontFamily=Architects Daughter;fontSource=https%3A%2F%2Ffonts.googleapis.com%2Fcss%3Ffamily%3DArchitects%2BDaughter;strokeWidth=3;dashed=1;dashPattern=1 4;" parent="1" source="QNOvUItwXMUCAhQ9Vl6e-22" target="QNOvUItwXMUCAhQ9Vl6e-29" edge="1">
          <mxGeometry width="50" height="50" relative="1" as="geometry">
            <mxPoint x="350" y="170" as="sourcePoint" />
            <mxPoint x="350" y="750" as="targetPoint" />
          </mxGeometry>
        </mxCell>
        <mxCell id="QNOvUItwXMUCAhQ9Vl6e-29" value="" style="ellipse;whiteSpace=wrap;html=1;aspect=fixed;sketch=1;hachureGap=4;jiggle=2;curveFitting=1;fontFamily=Architects Daughter;fontSource=https%3A%2F%2Ffonts.googleapis.com%2Fcss%3Ffamily%3DArchitects%2BDaughter;fillColor=#f8cecc;strokeColor=#b85450;" parent="1" vertex="1">
          <mxGeometry x="340" y="230" width="20" height="20" as="geometry" />
        </mxCell>
        <mxCell id="QNOvUItwXMUCAhQ9Vl6e-35" value="" style="endArrow=classic;html=1;rounded=0;sketch=1;hachureGap=4;jiggle=2;curveFitting=1;fontFamily=Architects Daughter;fontSource=https%3A%2F%2Ffonts.googleapis.com%2Fcss%3Ffamily%3DArchitects%2BDaughter;strokeWidth=3;" parent="1" source="QNOvUItwXMUCAhQ9Vl6e-29" target="QNOvUItwXMUCAhQ9Vl6e-33" edge="1">
          <mxGeometry width="50" height="50" relative="1" as="geometry">
            <mxPoint x="350" y="250" as="sourcePoint" />
            <mxPoint x="350" y="790" as="targetPoint" />
          </mxGeometry>
        </mxCell>
        <mxCell id="QNOvUItwXMUCAhQ9Vl6e-33" value="" style="ellipse;whiteSpace=wrap;html=1;aspect=fixed;sketch=1;hachureGap=4;jiggle=2;curveFitting=1;fontFamily=Architects Daughter;fontSource=https%3A%2F%2Ffonts.googleapis.com%2Fcss%3Ffamily%3DArchitects%2BDaughter;fillColor=#f8cecc;strokeColor=#b85450;" parent="1" vertex="1">
          <mxGeometry x="340" y="270" width="20" height="20" as="geometry" />
        </mxCell>
        <mxCell id="QNOvUItwXMUCAhQ9Vl6e-42" value="" style="endArrow=classic;html=1;rounded=0;sketch=1;hachureGap=4;jiggle=2;curveFitting=1;fontFamily=Architects Daughter;fontSource=https%3A%2F%2Ffonts.googleapis.com%2Fcss%3Ffamily%3DArchitects%2BDaughter;strokeWidth=3;dashed=1;dashPattern=1 4;" parent="1" source="QNOvUItwXMUCAhQ9Vl6e-33" target="QNOvUItwXMUCAhQ9Vl6e-41" edge="1">
          <mxGeometry width="50" height="50" relative="1" as="geometry">
            <mxPoint x="350" y="330" as="sourcePoint" />
            <mxPoint x="350" y="950" as="targetPoint" />
          </mxGeometry>
        </mxCell>
        <mxCell id="QNOvUItwXMUCAhQ9Vl6e-41" value="" style="ellipse;whiteSpace=wrap;html=1;aspect=fixed;sketch=1;hachureGap=4;jiggle=2;curveFitting=1;fontFamily=Architects Daughter;fontSource=https%3A%2F%2Ffonts.googleapis.com%2Fcss%3Ffamily%3DArchitects%2BDaughter;fillColor=#f8cecc;strokeColor=#b85450;" parent="1" vertex="1">
          <mxGeometry x="340" y="389" width="20" height="20" as="geometry" />
        </mxCell>
        <mxCell id="QNOvUItwXMUCAhQ9Vl6e-46" value="" style="endArrow=classic;html=1;rounded=0;sketch=1;hachureGap=4;jiggle=2;curveFitting=1;fontFamily=Architects Daughter;fontSource=https%3A%2F%2Ffonts.googleapis.com%2Fcss%3Ffamily%3DArchitects%2BDaughter;strokeWidth=3;dashed=1;dashPattern=1 4;" parent="1" source="QNOvUItwXMUCAhQ9Vl6e-41" target="QNOvUItwXMUCAhQ9Vl6e-45" edge="1">
          <mxGeometry width="50" height="50" relative="1" as="geometry">
            <mxPoint x="350" y="769" as="sourcePoint" />
            <mxPoint x="350" y="1190" as="targetPoint" />
          </mxGeometry>
        </mxCell>
        <mxCell id="QNOvUItwXMUCAhQ9Vl6e-45" value="" style="ellipse;whiteSpace=wrap;html=1;aspect=fixed;sketch=1;hachureGap=4;jiggle=2;curveFitting=1;fontFamily=Architects Daughter;fontSource=https%3A%2F%2Ffonts.googleapis.com%2Fcss%3Ffamily%3DArchitects%2BDaughter;fillColor=#f8cecc;strokeColor=#b85450;" parent="1" vertex="1">
          <mxGeometry x="340" y="510" width="20" height="20" as="geometry" />
        </mxCell>
        <mxCell id="QNOvUItwXMUCAhQ9Vl6e-50" value="" style="endArrow=classic;html=1;rounded=0;sketch=1;hachureGap=4;jiggle=2;curveFitting=1;fontFamily=Architects Daughter;fontSource=https%3A%2F%2Ffonts.googleapis.com%2Fcss%3Ffamily%3DArchitects%2BDaughter;strokeWidth=3;" parent="1" source="QNOvUItwXMUCAhQ9Vl6e-45" target="QNOvUItwXMUCAhQ9Vl6e-47" edge="1">
          <mxGeometry width="50" height="50" relative="1" as="geometry">
            <mxPoint x="350" y="530" as="sourcePoint" />
            <mxPoint x="350" y="920" as="targetPoint" />
          </mxGeometry>
        </mxCell>
        <mxCell id="QNOvUItwXMUCAhQ9Vl6e-47" value="" style="ellipse;whiteSpace=wrap;html=1;aspect=fixed;sketch=1;hachureGap=4;jiggle=2;curveFitting=1;fontFamily=Architects Daughter;fontSource=https%3A%2F%2Ffonts.googleapis.com%2Fcss%3Ffamily%3DArchitects%2BDaughter;fillColor=#f8cecc;strokeColor=#b85450;" parent="1" vertex="1">
          <mxGeometry x="340" y="550" width="20" height="20" as="geometry" />
        </mxCell>
        <mxCell id="QNOvUItwXMUCAhQ9Vl6e-53" value="" style="endArrow=classic;html=1;rounded=0;sketch=1;hachureGap=4;jiggle=2;curveFitting=1;fontFamily=Architects Daughter;fontSource=https%3A%2F%2Ffonts.googleapis.com%2Fcss%3Ffamily%3DArchitects%2BDaughter;strokeWidth=3;" parent="1" source="QNOvUItwXMUCAhQ9Vl6e-47" target="QNOvUItwXMUCAhQ9Vl6e-52" edge="1">
          <mxGeometry width="50" height="50" relative="1" as="geometry">
            <mxPoint x="350" y="570" as="sourcePoint" />
            <mxPoint x="350" y="920" as="targetPoint" />
          </mxGeometry>
        </mxCell>
        <mxCell id="QNOvUItwXMUCAhQ9Vl6e-52" value="" style="ellipse;whiteSpace=wrap;html=1;aspect=fixed;sketch=1;hachureGap=4;jiggle=2;curveFitting=1;fontFamily=Architects Daughter;fontSource=https%3A%2F%2Ffonts.googleapis.com%2Fcss%3Ffamily%3DArchitects%2BDaughter;fillColor=#f8cecc;strokeColor=#b85450;" parent="1" vertex="1">
          <mxGeometry x="340" y="590" width="20" height="20" as="geometry" />
        </mxCell>
        <mxCell id="QNOvUItwXMUCAhQ9Vl6e-61" value="" style="endArrow=classic;html=1;rounded=0;sketch=1;hachureGap=4;jiggle=2;curveFitting=1;fontFamily=Architects Daughter;fontSource=https%3A%2F%2Ffonts.googleapis.com%2Fcss%3Ffamily%3DArchitects%2BDaughter;strokeWidth=3;dashed=1;dashPattern=1 4;" parent="1" source="QNOvUItwXMUCAhQ9Vl6e-52" target="QNOvUItwXMUCAhQ9Vl6e-60" edge="1">
          <mxGeometry width="50" height="50" relative="1" as="geometry">
            <mxPoint x="350" y="610" as="sourcePoint" />
            <mxPoint x="350" y="920" as="targetPoint" />
          </mxGeometry>
        </mxCell>
        <mxCell id="QNOvUItwXMUCAhQ9Vl6e-60" value="" style="ellipse;whiteSpace=wrap;html=1;aspect=fixed;sketch=1;hachureGap=4;jiggle=2;curveFitting=1;fontFamily=Architects Daughter;fontSource=https%3A%2F%2Ffonts.googleapis.com%2Fcss%3Ffamily%3DArchitects%2BDaughter;fillColor=#f8cecc;strokeColor=#b85450;" parent="1" vertex="1">
          <mxGeometry x="340" y="710" width="20" height="20" as="geometry" />
        </mxCell>
        <mxCell id="QNOvUItwXMUCAhQ9Vl6e-66" value="" style="endArrow=classic;html=1;rounded=0;sketch=1;hachureGap=4;jiggle=2;curveFitting=1;fontFamily=Architects Daughter;fontSource=https%3A%2F%2Ffonts.googleapis.com%2Fcss%3Ffamily%3DArchitects%2BDaughter;strokeWidth=3;dashed=1;dashPattern=1 4;" parent="1" source="QNOvUItwXMUCAhQ9Vl6e-60" target="QNOvUItwXMUCAhQ9Vl6e-63" edge="1">
          <mxGeometry width="50" height="50" relative="1" as="geometry">
            <mxPoint x="350" y="730" as="sourcePoint" />
            <mxPoint x="350" y="1560" as="targetPoint" />
          </mxGeometry>
        </mxCell>
        <mxCell id="QNOvUItwXMUCAhQ9Vl6e-63" value="" style="ellipse;whiteSpace=wrap;html=1;aspect=fixed;sketch=1;hachureGap=4;jiggle=2;curveFitting=1;fontFamily=Architects Daughter;fontSource=https%3A%2F%2Ffonts.googleapis.com%2Fcss%3Ffamily%3DArchitects%2BDaughter;fillColor=#f8cecc;strokeColor=#b85450;" parent="1" vertex="1">
          <mxGeometry x="340" y="830" width="20" height="20" as="geometry" />
        </mxCell>
        <mxCell id="QNOvUItwXMUCAhQ9Vl6e-67" value="" style="endArrow=none;dashed=1;html=1;rounded=0;sketch=1;hachureGap=4;jiggle=2;curveFitting=1;fontFamily=Architects Daughter;fontSource=https%3A%2F%2Ffonts.googleapis.com%2Fcss%3Ffamily%3DArchitects%2BDaughter;" parent="1" edge="1">
          <mxGeometry width="50" height="50" relative="1" as="geometry">
            <mxPoint x="40" y="340" as="sourcePoint" />
            <mxPoint x="720" y="340" as="targetPoint" />
          </mxGeometry>
        </mxCell>
        <mxCell id="QNOvUItwXMUCAhQ9Vl6e-68" value="1800" style="text;html=1;align=left;verticalAlign=middle;whiteSpace=wrap;rounded=0;fontFamily=Architects Daughter;fontSource=https%3A%2F%2Ffonts.googleapis.com%2Fcss%3Ffamily%3DArchitects%2BDaughter;" parent="1" vertex="1">
          <mxGeometry x="40" y="310" width="60" height="30" as="geometry" />
        </mxCell>
        <mxCell id="QNOvUItwXMUCAhQ9Vl6e-69" value="" style="endArrow=none;dashed=1;html=1;rounded=0;sketch=1;hachureGap=4;jiggle=2;curveFitting=1;fontFamily=Architects Daughter;fontSource=https%3A%2F%2Ffonts.googleapis.com%2Fcss%3Ffamily%3DArchitects%2BDaughter;" parent="1" edge="1">
          <mxGeometry width="50" height="50" relative="1" as="geometry">
            <mxPoint x="40" y="1080" as="sourcePoint" />
            <mxPoint x="720" y="1080" as="targetPoint" />
          </mxGeometry>
        </mxCell>
        <mxCell id="QNOvUItwXMUCAhQ9Vl6e-70" value="1900" style="text;html=1;align=left;verticalAlign=middle;whiteSpace=wrap;rounded=0;fontFamily=Architects Daughter;fontSource=https%3A%2F%2Ffonts.googleapis.com%2Fcss%3Ffamily%3DArchitects%2BDaughter;" parent="1" vertex="1">
          <mxGeometry x="40" y="1050" width="60" height="30" as="geometry" />
        </mxCell>
        <mxCell id="QNOvUItwXMUCAhQ9Vl6e-73" value="" style="endArrow=classic;html=1;rounded=0;sketch=1;hachureGap=4;jiggle=2;curveFitting=1;fontFamily=Architects Daughter;fontSource=https%3A%2F%2Ffonts.googleapis.com%2Fcss%3Ffamily%3DArchitects%2BDaughter;strokeWidth=3;dashed=1;dashPattern=1 4;" parent="1" source="QNOvUItwXMUCAhQ9Vl6e-63" target="QNOvUItwXMUCAhQ9Vl6e-72" edge="1">
          <mxGeometry width="50" height="50" relative="1" as="geometry">
            <mxPoint x="350" y="850" as="sourcePoint" />
            <mxPoint x="350" y="1560" as="targetPoint" />
          </mxGeometry>
        </mxCell>
        <mxCell id="QNOvUItwXMUCAhQ9Vl6e-72" value="" style="ellipse;whiteSpace=wrap;html=1;aspect=fixed;sketch=1;hachureGap=4;jiggle=2;curveFitting=1;fontFamily=Architects Daughter;fontSource=https%3A%2F%2Ffonts.googleapis.com%2Fcss%3Ffamily%3DArchitects%2BDaughter;fillColor=#f8cecc;strokeColor=#b85450;" parent="1" vertex="1">
          <mxGeometry x="340" y="910" width="20" height="20" as="geometry" />
        </mxCell>
        <mxCell id="QNOvUItwXMUCAhQ9Vl6e-76" value="" style="endArrow=classic;html=1;rounded=0;sketch=1;hachureGap=4;jiggle=2;curveFitting=1;fontFamily=Architects Daughter;fontSource=https%3A%2F%2Ffonts.googleapis.com%2Fcss%3Ffamily%3DArchitects%2BDaughter;strokeWidth=3;dashed=1;dashPattern=1 4;" parent="1" source="QNOvUItwXMUCAhQ9Vl6e-72" target="QNOvUItwXMUCAhQ9Vl6e-74" edge="1">
          <mxGeometry width="50" height="50" relative="1" as="geometry">
            <mxPoint x="350" y="930" as="sourcePoint" />
            <mxPoint x="350" y="1560" as="targetPoint" />
          </mxGeometry>
        </mxCell>
        <mxCell id="QNOvUItwXMUCAhQ9Vl6e-74" value="" style="ellipse;whiteSpace=wrap;html=1;aspect=fixed;sketch=1;hachureGap=4;jiggle=2;curveFitting=1;fontFamily=Architects Daughter;fontSource=https%3A%2F%2Ffonts.googleapis.com%2Fcss%3Ffamily%3DArchitects%2BDaughter;fillColor=#f8cecc;strokeColor=#b85450;" parent="1" vertex="1">
          <mxGeometry x="340" y="1030" width="20" height="20" as="geometry" />
        </mxCell>
        <mxCell id="QNOvUItwXMUCAhQ9Vl6e-78" value="" style="endArrow=classic;startArrow=classic;html=1;rounded=0;sketch=1;hachureGap=4;jiggle=2;curveFitting=1;fontFamily=Architects Daughter;fontSource=https%3A%2F%2Ffonts.googleapis.com%2Fcss%3Ffamily%3DArchitects%2BDaughter;fillColor=#dae8fc;strokeColor=#6c8ebf;" parent="1" edge="1">
          <mxGeometry width="50" height="50" relative="1" as="geometry">
            <mxPoint x="320" y="1000" as="sourcePoint" />
            <mxPoint x="320" y="960" as="targetPoint" />
          </mxGeometry>
        </mxCell>
        <mxCell id="QNOvUItwXMUCAhQ9Vl6e-80" value="" style="endArrow=classic;startArrow=classic;html=1;rounded=0;sketch=1;hachureGap=4;jiggle=2;curveFitting=1;fontFamily=Architects Daughter;fontSource=https%3A%2F%2Ffonts.googleapis.com%2Fcss%3Ffamily%3DArchitects%2BDaughter;fillColor=#dae8fc;strokeColor=#6c8ebf;" parent="1" edge="1">
          <mxGeometry width="50" height="50" relative="1" as="geometry">
            <mxPoint x="320" y="330" as="sourcePoint" />
            <mxPoint x="320" y="120" as="targetPoint" />
          </mxGeometry>
        </mxCell>
        <mxCell id="QNOvUItwXMUCAhQ9Vl6e-82" value="" style="endArrow=classic;startArrow=classic;html=1;rounded=0;sketch=1;hachureGap=4;jiggle=2;curveFitting=1;fontFamily=Architects Daughter;fontSource=https%3A%2F%2Ffonts.googleapis.com%2Fcss%3Ffamily%3DArchitects%2BDaughter;fillColor=#dae8fc;strokeColor=#6c8ebf;" parent="1" edge="1">
          <mxGeometry width="50" height="50" relative="1" as="geometry">
            <mxPoint x="319.6" y="720" as="sourcePoint" />
            <mxPoint x="319.6" y="680" as="targetPoint" />
          </mxGeometry>
        </mxCell>
        <mxCell id="QNOvUItwXMUCAhQ9Vl6e-88" value="" style="shape=cross;whiteSpace=wrap;html=1;sketch=1;hachureGap=4;jiggle=2;curveFitting=1;fontFamily=Architects Daughter;fontSource=https%3A%2F%2Ffonts.googleapis.com%2Fcss%3Ffamily%3DArchitects%2BDaughter;size=0;rotation=45;fillColor=#f8cecc;strokeColor=#b85450;" parent="1" vertex="1">
          <mxGeometry x="50" y="-186.76" width="17.14" height="15.53" as="geometry" />
        </mxCell>
        <mxCell id="QNOvUItwXMUCAhQ9Vl6e-89" value="" style="endArrow=classic;startArrow=classic;html=1;rounded=0;sketch=1;hachureGap=4;jiggle=2;curveFitting=1;fontFamily=Architects Daughter;fontSource=https%3A%2F%2Ffonts.googleapis.com%2Fcss%3Ffamily%3DArchitects%2BDaughter;fillColor=#dae8fc;strokeColor=#6c8ebf;" parent="1" edge="1">
          <mxGeometry width="50" height="50" relative="1" as="geometry">
            <mxPoint x="319.6" y="840" as="sourcePoint" />
            <mxPoint x="319.6" y="800" as="targetPoint" />
          </mxGeometry>
        </mxCell>
        <mxCell id="QNOvUItwXMUCAhQ9Vl6e-91" value="" style="endArrow=classic;startArrow=classic;html=1;rounded=0;sketch=1;hachureGap=4;jiggle=2;curveFitting=1;fontFamily=Architects Daughter;fontSource=https%3A%2F%2Ffonts.googleapis.com%2Fcss%3Ffamily%3DArchitects%2BDaughter;fillColor=#dae8fc;strokeColor=#6c8ebf;" parent="1" edge="1">
          <mxGeometry width="50" height="50" relative="1" as="geometry">
            <mxPoint x="320" y="1050" as="sourcePoint" />
            <mxPoint x="320" y="1010" as="targetPoint" />
          </mxGeometry>
        </mxCell>
        <mxCell id="QNOvUItwXMUCAhQ9Vl6e-95" value="" style="shape=cross;whiteSpace=wrap;html=1;sketch=1;hachureGap=4;jiggle=2;curveFitting=1;fontFamily=Architects Daughter;fontSource=https%3A%2F%2Ffonts.googleapis.com%2Fcss%3Ffamily%3DArchitects%2BDaughter;size=0;rotation=45;fillColor=#e1d5e7;strokeColor=#9673a6;" parent="1" vertex="1">
          <mxGeometry x="51.68000000000001" y="-148.57999999999998" width="15.56" height="13.96" as="geometry" />
        </mxCell>
        <mxCell id="QNOvUItwXMUCAhQ9Vl6e-99" value="" style="shape=cross;whiteSpace=wrap;html=1;sketch=1;hachureGap=4;jiggle=2;curveFitting=1;fontFamily=Architects Daughter;fontSource=https%3A%2F%2Ffonts.googleapis.com%2Fcss%3Ffamily%3DArchitects%2BDaughter;size=0;rotation=45;fillColor=#e1d5e7;strokeColor=#9673a6;" parent="1" vertex="1">
          <mxGeometry x="344" y="950.47" width="11.11" height="11.06" as="geometry" />
        </mxCell>
        <mxCell id="QNOvUItwXMUCAhQ9Vl6e-100" style="edgeStyle=orthogonalEdgeStyle;rounded=0;sketch=1;hachureGap=4;jiggle=2;curveFitting=1;orthogonalLoop=1;jettySize=auto;html=1;entryX=0;entryY=0;entryDx=5.555;entryDy=5.53;entryPerimeter=0;fontFamily=Architects Daughter;fontSource=https%3A%2F%2Ffonts.googleapis.com%2Fcss%3Ffamily%3DArchitects%2BDaughter;strokeWidth=1;dashed=1;fillColor=#e1d5e7;strokeColor=#9673a6;endArrow=none;startFill=0;" parent="1" source="QNOvUItwXMUCAhQ9Vl6e-98" target="QNOvUItwXMUCAhQ9Vl6e-99" edge="1">
          <mxGeometry relative="1" as="geometry" />
        </mxCell>
        <mxCell id="ZIUHDSg0vSBeBHE2A_sr-1" value="" style="endArrow=classic;html=1;rounded=0;sketch=1;hachureGap=4;jiggle=2;curveFitting=1;fontFamily=Architects Daughter;fontSource=https%3A%2F%2Ffonts.googleapis.com%2Fcss%3Ffamily%3DArchitects%2BDaughter;strokeWidth=3;" parent="1" edge="1">
          <mxGeometry width="50" height="50" relative="1" as="geometry">
            <mxPoint x="58.139999999999986" y="-80" as="sourcePoint" />
            <mxPoint x="58.139999999999986" y="-40" as="targetPoint" />
          </mxGeometry>
        </mxCell>
        <mxCell id="ZIUHDSg0vSBeBHE2A_sr-5" value="" style="endArrow=classic;html=1;rounded=0;sketch=1;hachureGap=4;jiggle=2;curveFitting=1;fontFamily=Architects Daughter;fontSource=https%3A%2F%2Ffonts.googleapis.com%2Fcss%3Ffamily%3DArchitects%2BDaughter;strokeWidth=3;dashed=1;dashPattern=1 4;" parent="1" edge="1">
          <mxGeometry width="50" height="50" relative="1" as="geometry">
            <mxPoint x="60" y="-20" as="sourcePoint" />
            <mxPoint x="58" y="40" as="targetPoint" />
          </mxGeometry>
        </mxCell>
        <mxCell id="gDvKelauCvRJZfXSLMkx-19" value="" style="endArrow=none;dashed=1;html=1;rounded=0;sketch=1;hachureGap=4;jiggle=2;curveFitting=1;fontFamily=Architects Daughter;fontSource=https%3A%2F%2Ffonts.googleapis.com%2Fcss%3Ffamily%3DArchitects%2BDaughter;" parent="1" edge="1">
          <mxGeometry width="50" height="50" relative="1" as="geometry">
            <mxPoint x="40" y="1130" as="sourcePoint" />
            <mxPoint x="720" y="1130" as="targetPoint" />
          </mxGeometry>
        </mxCell>
        <mxCell id="gDvKelauCvRJZfXSLMkx-20" value="2000" style="text;html=1;align=left;verticalAlign=middle;whiteSpace=wrap;rounded=0;fontFamily=Architects Daughter;fontSource=https%3A%2F%2Ffonts.googleapis.com%2Fcss%3Ffamily%3DArchitects%2BDaughter;" parent="1" vertex="1">
          <mxGeometry x="40" y="1100" width="60" height="30" as="geometry" />
        </mxCell>
        <mxCell id="gDvKelauCvRJZfXSLMkx-21" value="" style="endArrow=none;dashed=1;html=1;rounded=0;sketch=1;hachureGap=4;jiggle=2;curveFitting=1;fontFamily=Architects Daughter;fontSource=https%3A%2F%2Ffonts.googleapis.com%2Fcss%3Ffamily%3DArchitects%2BDaughter;" parent="1" edge="1">
          <mxGeometry width="50" height="50" relative="1" as="geometry">
            <mxPoint x="40" y="80" as="sourcePoint" />
            <mxPoint x="720" y="80" as="targetPoint" />
          </mxGeometry>
        </mxCell>
        <mxCell id="gDvKelauCvRJZfXSLMkx-22" value="1700" style="text;html=1;align=left;verticalAlign=middle;whiteSpace=wrap;rounded=0;fontFamily=Architects Daughter;fontSource=https%3A%2F%2Ffonts.googleapis.com%2Fcss%3Ffamily%3DArchitects%2BDaughter;" parent="1" vertex="1">
          <mxGeometry x="40" y="50" width="60" height="30" as="geometry" />
        </mxCell>
        <mxCell id="tt-JTE62vg2d0CVdrw2t-1" value="English" parent="0" />
        <mxCell id="Gj2NmC_4pzLJfWnLzphC-2" value="Major Societal Event" style="text;html=1;align=left;verticalAlign=middle;whiteSpace=wrap;rounded=0;fontFamily=Architects Daughter;fontSource=https%3A%2F%2Ffonts.googleapis.com%2Fcss%3Ffamily%3DArchitects%2BDaughter;fontColor=light-dark(#b95450, #EDEDED);" parent="tt-JTE62vg2d0CVdrw2t-1" vertex="1">
          <mxGeometry x="80" y="-234" width="190" height="30" as="geometry" />
        </mxCell>
        <mxCell id="Gj2NmC_4pzLJfWnLzphC-3" value="Historical Timeline" style="text;html=1;align=center;verticalAlign=middle;whiteSpace=wrap;rounded=0;fontFamily=Architects Daughter;fontSource=https%3A%2F%2Ffonts.googleapis.com%2Fcss%3Ffamily%3DArchitects%2BDaughter;fontSize=21;fontStyle=1" parent="tt-JTE62vg2d0CVdrw2t-1" vertex="1">
          <mxGeometry x="40" y="-290" width="680" height="40" as="geometry" />
        </mxCell>
        <mxCell id="FGHvBDgQKr6gsITx7Irh-1" value="Societal Event" style="text;html=1;align=left;verticalAlign=middle;whiteSpace=wrap;rounded=0;fontFamily=Architects Daughter;fontSource=https%3A%2F%2Ffonts.googleapis.com%2Fcss%3Ffamily%3DArchitects%2BDaughter;fontColor=light-dark(#b95450, #EDEDED);" parent="tt-JTE62vg2d0CVdrw2t-1" vertex="1">
          <mxGeometry x="80" y="-194" width="130" height="30" as="geometry" />
        </mxCell>
        <mxCell id="FGHvBDgQKr6gsITx7Irh-2" value="Character event" style="text;html=1;align=left;verticalAlign=middle;whiteSpace=wrap;rounded=0;fontFamily=Architects Daughter;fontSource=https%3A%2F%2Ffonts.googleapis.com%2Fcss%3Ffamily%3DArchitects%2BDaughter;fontColor=light-dark(#9773a6, #EDEDED);textShadow=0;" parent="tt-JTE62vg2d0CVdrw2t-1" vertex="1">
          <mxGeometry x="75" y="-154" width="135" height="30" as="geometry" />
        </mxCell>
        <mxCell id="FGHvBDgQKr6gsITx7Irh-3" value="&lt;font style=&quot;color: light-dark(rgb(108, 142, 191), rgb(237, 237, 237));&quot;&gt;Period&lt;/font&gt;" style="text;html=1;align=left;verticalAlign=middle;whiteSpace=wrap;rounded=0;fontFamily=Architects Daughter;fontSource=https%3A%2F%2Ffonts.googleapis.com%2Fcss%3Ffamily%3DArchitects%2BDaughter;fontColor=light-dark(#666666, #EDEDED);" parent="tt-JTE62vg2d0CVdrw2t-1" vertex="1">
          <mxGeometry x="80" y="-114" width="100" height="30" as="geometry" />
        </mxCell>
        <mxCell id="FGHvBDgQKr6gsITx7Irh-4" value="1 year" style="text;html=1;align=left;verticalAlign=middle;whiteSpace=wrap;rounded=0;fontFamily=Architects Daughter;fontSource=https%3A%2F%2Ffonts.googleapis.com%2Fcss%3Ffamily%3DArchitects%2BDaughter;" parent="tt-JTE62vg2d0CVdrw2t-1" vertex="1">
          <mxGeometry x="80" y="-80" width="60" height="40" as="geometry" />
        </mxCell>
        <mxCell id="FGHvBDgQKr6gsITx7Irh-5" value="Truncated period of time" style="text;html=1;align=left;verticalAlign=middle;whiteSpace=wrap;rounded=0;fontFamily=Architects Daughter;fontSource=https%3A%2F%2Ffonts.googleapis.com%2Fcss%3Ffamily%3DArchitects%2BDaughter;" parent="tt-JTE62vg2d0CVdrw2t-1" vertex="1">
          <mxGeometry x="80" y="-20" width="160" height="40" as="geometry" />
        </mxCell>
        <mxCell id="FGHvBDgQKr6gsITx7Irh-6" value="&lt;font style=&quot;color: light-dark(rgb(108, 142, 191), rgb(237, 237, 237));&quot;&gt;1789 1799&lt;br&gt;&amp;nbsp;🇫🇷&amp;nbsp;&lt;a href=&quot;https://en.wikipedia.org/wiki/French_Revolution&quot;&gt;French Revolution&lt;/a&gt;&lt;/font&gt;" style="text;html=1;align=right;verticalAlign=middle;whiteSpace=wrap;rounded=0;fontFamily=Architects Daughter;fontSource=https%3A%2F%2Ffonts.googleapis.com%2Fcss%3Ffamily%3DArchitects%2BDaughter;fontColor=light-dark(#666666, #EDEDED);" parent="tt-JTE62vg2d0CVdrw2t-1" vertex="1">
          <mxGeometry x="170" y="120" width="140" height="40" as="geometry" />
        </mxCell>
        <mxCell id="gDvKelauCvRJZfXSLMkx-2" value="14 July 1789&amp;nbsp;&lt;br&gt;&lt;a href=&quot;https://en.wikipedia.org/wiki/Storming_of_the_Bastille&quot;&gt;Storming of the bastille, beginning of the French Revolution&lt;/a&gt;" style="text;html=1;align=left;verticalAlign=middle;whiteSpace=wrap;rounded=0;fontFamily=Architects Daughter;fontSource=https%3A%2F%2Ffonts.googleapis.com%2Fcss%3Ffamily%3DArchitects%2BDaughter;fontColor=light-dark(#b95450, #EDEDED);" parent="tt-JTE62vg2d0CVdrw2t-1" vertex="1">
          <mxGeometry x="370" y="105" width="350" height="30" as="geometry" />
        </mxCell>
        <mxCell id="gDvKelauCvRJZfXSLMkx-3" value="21 September 1792&lt;br&gt;&lt;div&gt;&lt;a href=&quot;https://en.wikipedia.org/wiki/Proclamation_of_the_abolition_of_the_monarchy&quot;&gt;Proclamation of the abolition of the monarchy&lt;/a&gt;&lt;/div&gt;" style="text;html=1;align=left;verticalAlign=middle;whiteSpace=wrap;rounded=0;fontFamily=Architects Daughter;fontSource=https%3A%2F%2Ffonts.googleapis.com%2Fcss%3Ffamily%3DArchitects%2BDaughter;fontColor=light-dark(#b95450, #EDEDED);" parent="tt-JTE62vg2d0CVdrw2t-1" vertex="1">
          <mxGeometry x="370" y="230" width="270" height="30" as="geometry" />
        </mxCell>
        <mxCell id="gDvKelauCvRJZfXSLMkx-4" value="22 September 1792&lt;br&gt;&lt;a href=&quot;https://en.wikipedia.org/wiki/French_First_Republic&quot;&gt;French First Republic&lt;/a&gt;" style="text;html=1;align=left;verticalAlign=middle;whiteSpace=wrap;rounded=0;fontFamily=Architects Daughter;fontSource=https%3A%2F%2Ffonts.googleapis.com%2Fcss%3Ffamily%3DArchitects%2BDaughter;fontColor=light-dark(#b95450, #EDEDED);" parent="tt-JTE62vg2d0CVdrw2t-1" vertex="1">
          <mxGeometry x="370" y="265" width="230" height="30" as="geometry" />
        </mxCell>
        <mxCell id="gDvKelauCvRJZfXSLMkx-5" value="18 May 1804&lt;div&gt;&lt;a href=&quot;https://en.wikipedia.org/wiki/First_French_Empire&quot;&gt;First French Empire, Napoleon Emperor&lt;/a&gt;&lt;/div&gt;" style="text;html=1;align=left;verticalAlign=middle;whiteSpace=wrap;rounded=0;fontFamily=Architects Daughter;fontSource=https%3A%2F%2Ffonts.googleapis.com%2Fcss%3Ffamily%3DArchitects%2BDaughter;fontColor=light-dark(#b95450, #EDEDED);" parent="tt-JTE62vg2d0CVdrw2t-1" vertex="1">
          <mxGeometry x="370" y="384" width="230" height="30" as="geometry" />
        </mxCell>
        <mxCell id="gDvKelauCvRJZfXSLMkx-6" value="20 March 1815&lt;br&gt;&lt;div&gt;&lt;a href=&quot;https://en.wikipedia.org/wiki/Hundred_Days&quot;&gt;Hundred Days, Napoleon returns&lt;/a&gt;&lt;/div&gt;" style="text;html=1;align=left;verticalAlign=middle;whiteSpace=wrap;rounded=0;fontFamily=Architects Daughter;fontSource=https%3A%2F%2Ffonts.googleapis.com%2Fcss%3Ffamily%3DArchitects%2BDaughter;fontColor=light-dark(#b95450, #EDEDED);" parent="tt-JTE62vg2d0CVdrw2t-1" vertex="1">
          <mxGeometry x="370" y="545" width="260" height="30" as="geometry" />
        </mxCell>
        <mxCell id="gDvKelauCvRJZfXSLMkx-7" value="6 April 1814&lt;br&gt;&lt;div&gt;&lt;a href=&quot;https://en.wikipedia.org/wiki/First_Restoration&quot;&gt;First Restoration, Louis XVIII&lt;/a&gt;&lt;/div&gt;" style="text;html=1;align=left;verticalAlign=middle;whiteSpace=wrap;rounded=0;fontFamily=Architects Daughter;fontSource=https%3A%2F%2Ffonts.googleapis.com%2Fcss%3Ffamily%3DArchitects%2BDaughter;fontColor=light-dark(#b95450, #EDEDED);" parent="tt-JTE62vg2d0CVdrw2t-1" vertex="1">
          <mxGeometry x="370" y="505" width="230" height="30" as="geometry" />
        </mxCell>
        <mxCell id="gDvKelauCvRJZfXSLMkx-8" value="8 July 1815&lt;br&gt;Second Restoration, Louis XVIII returns" style="text;html=1;align=left;verticalAlign=middle;whiteSpace=wrap;rounded=0;fontFamily=Architects Daughter;fontSource=https%3A%2F%2Ffonts.googleapis.com%2Fcss%3Ffamily%3DArchitects%2BDaughter;fontColor=light-dark(#b95450, #EDEDED);" parent="tt-JTE62vg2d0CVdrw2t-1" vertex="1">
          <mxGeometry x="370" y="585" width="260" height="30" as="geometry" />
        </mxCell>
        <mxCell id="gDvKelauCvRJZfXSLMkx-9" value="9 August 1830&lt;br&gt;&lt;div&gt;&lt;a href=&quot;https://en.wikipedia.org/wiki/July_Monarchy&quot;&gt;July Monarchy, Louis Philippe 1&lt;/a&gt;&lt;/div&gt;" style="text;html=1;align=left;verticalAlign=middle;whiteSpace=wrap;rounded=0;fontFamily=Architects Daughter;fontSource=https%3A%2F%2Ffonts.googleapis.com%2Fcss%3Ffamily%3DArchitects%2BDaughter;fontColor=light-dark(#b95450, #EDEDED);" parent="tt-JTE62vg2d0CVdrw2t-1" vertex="1">
          <mxGeometry x="370" y="705" width="260" height="30" as="geometry" />
        </mxCell>
        <mxCell id="gDvKelauCvRJZfXSLMkx-10" value="24 February 1848&lt;br&gt;&lt;a href=&quot;https://en.wikipedia.org/wiki/French_Second_Republic&quot;&gt;French Second Republic&lt;/a&gt;" style="text;html=1;align=left;verticalAlign=middle;whiteSpace=wrap;rounded=0;fontFamily=Architects Daughter;fontSource=https%3A%2F%2Ffonts.googleapis.com%2Fcss%3Ffamily%3DArchitects%2BDaughter;fontColor=light-dark(#b95450, #EDEDED);" parent="tt-JTE62vg2d0CVdrw2t-1" vertex="1">
          <mxGeometry x="370" y="825" width="260" height="30" as="geometry" />
        </mxCell>
        <mxCell id="gDvKelauCvRJZfXSLMkx-11" value="2 December 1852&lt;br&gt;&lt;a href=&quot;https://en.wikipedia.org/wiki/Second_French_Empire&quot;&gt;Second French Empire&lt;/a&gt;" style="text;html=1;align=left;verticalAlign=middle;whiteSpace=wrap;rounded=0;fontFamily=Architects Daughter;fontSource=https%3A%2F%2Ffonts.googleapis.com%2Fcss%3Ffamily%3DArchitects%2BDaughter;fontColor=light-dark(#b95450, #EDEDED);" parent="tt-JTE62vg2d0CVdrw2t-1" vertex="1">
          <mxGeometry x="370" y="905" width="260" height="30" as="geometry" />
        </mxCell>
        <mxCell id="gDvKelauCvRJZfXSLMkx-12" value="4 septembre 1870&lt;br&gt;&lt;div&gt;&lt;a href=&quot;https://en.wikipedia.org/wiki/French_Third_Republic&quot;&gt;French Third Republic&lt;/a&gt;&lt;/div&gt;" style="text;html=1;align=left;verticalAlign=middle;whiteSpace=wrap;rounded=0;fontFamily=Architects Daughter;fontSource=https%3A%2F%2Ffonts.googleapis.com%2Fcss%3Ffamily%3DArchitects%2BDaughter;fontColor=light-dark(#b95450, #EDEDED);" parent="tt-JTE62vg2d0CVdrw2t-1" vertex="1">
          <mxGeometry x="370" y="1025" width="260" height="30" as="geometry" />
        </mxCell>
        <mxCell id="gDvKelauCvRJZfXSLMkx-13" value="1859&lt;br&gt;Charles Darwin (50 years)&lt;br&gt;&lt;a href=&quot;https://en.wikipedia.org/wiki/On_the_Origin_of_Species&quot;&gt;On the Origin of Species&lt;/a&gt;" style="text;html=1;align=left;verticalAlign=middle;whiteSpace=wrap;rounded=0;fontFamily=Architects Daughter;fontSource=https%3A%2F%2Ffonts.googleapis.com%2Fcss%3Ffamily%3DArchitects%2BDaughter;fontColor=light-dark(#9773a6, #EDEDED);textShadow=0;" parent="tt-JTE62vg2d0CVdrw2t-1" vertex="1">
          <mxGeometry x="559.55" y="931.5" width="160.45" height="49" as="geometry" />
        </mxCell>
        <mxCell id="gDvKelauCvRJZfXSLMkx-14" value="&lt;font style=&quot;color: light-dark(rgb(108, 142, 191), rgb(237, 237, 237));&quot;&gt;27 28 29 July 1830&lt;br&gt;&lt;a href=&quot;https://en.wikipedia.org/wiki/July_Revolution&quot;&gt;July revolution, Trois Glorieuses&lt;br&gt;Fall of Charles X&lt;/a&gt;&lt;/font&gt;" style="text;html=1;align=right;verticalAlign=middle;whiteSpace=wrap;rounded=0;fontFamily=Architects Daughter;fontSource=https%3A%2F%2Ffonts.googleapis.com%2Fcss%3Ffamily%3DArchitects%2BDaughter;fontColor=light-dark(#666666, #EDEDED);" parent="tt-JTE62vg2d0CVdrw2t-1" vertex="1">
          <mxGeometry x="105" y="680" width="204.6" height="40" as="geometry" />
        </mxCell>
        <mxCell id="gDvKelauCvRJZfXSLMkx-15" value="&lt;font style=&quot;color: light-dark(rgb(108, 142, 191), rgb(237, 237, 237));&quot;&gt;22 25 February 1848&lt;br&gt;&lt;a href=&quot;https://en.wikipedia.org/wiki/French_Revolution_of_1848&quot;&gt;February Revolution&lt;br&gt;Abdication of Louis Philippe 1&lt;/a&gt;&lt;/font&gt;" style="text;html=1;align=right;verticalAlign=middle;whiteSpace=wrap;rounded=0;fontFamily=Architects Daughter;fontSource=https%3A%2F%2Ffonts.googleapis.com%2Fcss%3Ffamily%3DArchitects%2BDaughter;fontColor=light-dark(#666666, #EDEDED);" parent="tt-JTE62vg2d0CVdrw2t-1" vertex="1">
          <mxGeometry x="105" y="800" width="204.6" height="40" as="geometry" />
        </mxCell>
        <mxCell id="gDvKelauCvRJZfXSLMkx-16" value="&lt;font style=&quot;color: light-dark(rgb(108, 142, 191), rgb(237, 237, 237));&quot;&gt;1861 - 1865&lt;br&gt;&lt;a href=&quot;https://fr.wikipedia.org/wiki/Guerre_de_Sécession&quot;&gt;🇺🇸 American Civil War&lt;/a&gt;&lt;/font&gt;" style="text;html=1;align=right;verticalAlign=middle;whiteSpace=wrap;rounded=0;fontFamily=Architects Daughter;fontSource=https%3A%2F%2Ffonts.googleapis.com%2Fcss%3Ffamily%3DArchitects%2BDaughter;fontColor=light-dark(#666666, #EDEDED);" parent="tt-JTE62vg2d0CVdrw2t-1" vertex="1">
          <mxGeometry x="170" y="960" width="140" height="40" as="geometry" />
        </mxCell>
        <mxCell id="gDvKelauCvRJZfXSLMkx-17" value="&lt;font style=&quot;color: light-dark(rgb(108, 142, 191), rgb(237, 237, 237));&quot;&gt;1870 1871&lt;br&gt;&lt;a href=&quot;https://en.wikipedia.org/wiki/Franco-Prussian_War&quot;&gt;Franco-Prussian War&lt;/a&gt;&lt;/font&gt;" style="text;html=1;align=right;verticalAlign=middle;whiteSpace=wrap;rounded=0;fontFamily=Architects Daughter;fontSource=https%3A%2F%2Ffonts.googleapis.com%2Fcss%3Ffamily%3DArchitects%2BDaughter;fontColor=light-dark(#666666, #EDEDED);" parent="tt-JTE62vg2d0CVdrw2t-1" vertex="1">
          <mxGeometry x="130" y="1010" width="180" height="40" as="geometry" />
        </mxCell>
        <mxCell id="tt-JTE62vg2d0CVdrw2t-2" value="French" style="" parent="0" />
        <mxCell id="QNOvUItwXMUCAhQ9Vl6e-43" value="Évènement sociétal majeur" style="text;html=1;align=left;verticalAlign=middle;whiteSpace=wrap;rounded=0;fontFamily=Architects Daughter;fontSource=https%3A%2F%2Ffonts.googleapis.com%2Fcss%3Ffamily%3DArchitects%2BDaughter;fontColor=light-dark(#b95450, #EDEDED);" parent="tt-JTE62vg2d0CVdrw2t-2" vertex="1">
          <mxGeometry x="80" y="-234" width="190" height="30" as="geometry" />
        </mxCell>
        <mxCell id="QNOvUItwXMUCAhQ9Vl6e-85" value="Évènement sociétal" style="text;html=1;align=left;verticalAlign=middle;whiteSpace=wrap;rounded=0;fontFamily=Architects Daughter;fontSource=https%3A%2F%2Ffonts.googleapis.com%2Fcss%3Ffamily%3DArchitects%2BDaughter;fontColor=light-dark(#b95450, #EDEDED);" parent="tt-JTE62vg2d0CVdrw2t-2" vertex="1">
          <mxGeometry x="80" y="-194" width="130" height="30" as="geometry" />
        </mxCell>
        <mxCell id="QNOvUItwXMUCAhQ9Vl6e-93" value="Évènement personne" style="text;html=1;align=left;verticalAlign=middle;whiteSpace=wrap;rounded=0;fontFamily=Architects Daughter;fontSource=https%3A%2F%2Ffonts.googleapis.com%2Fcss%3Ffamily%3DArchitects%2BDaughter;fontColor=light-dark(#9773a6, #EDEDED);textShadow=0;" parent="tt-JTE62vg2d0CVdrw2t-2" vertex="1">
          <mxGeometry x="75" y="-154" width="135" height="30" as="geometry" />
        </mxCell>
        <mxCell id="QNOvUItwXMUCAhQ9Vl6e-21" value="&lt;font style=&quot;color: light-dark(rgb(108, 142, 191), rgb(237, 237, 237));&quot;&gt;Période&lt;/font&gt;" style="text;html=1;align=left;verticalAlign=middle;whiteSpace=wrap;rounded=0;fontFamily=Architects Daughter;fontSource=https%3A%2F%2Ffonts.googleapis.com%2Fcss%3Ffamily%3DArchitects%2BDaughter;fontColor=light-dark(#666666, #EDEDED);" parent="tt-JTE62vg2d0CVdrw2t-2" vertex="1">
          <mxGeometry x="80" y="-114" width="100" height="30" as="geometry" />
        </mxCell>
        <mxCell id="ZIUHDSg0vSBeBHE2A_sr-3" value="1 an" style="text;html=1;align=left;verticalAlign=middle;whiteSpace=wrap;rounded=0;fontFamily=Architects Daughter;fontSource=https%3A%2F%2Ffonts.googleapis.com%2Fcss%3Ffamily%3DArchitects%2BDaughter;" parent="tt-JTE62vg2d0CVdrw2t-2" vertex="1">
          <mxGeometry x="80" y="-80" width="60" height="40" as="geometry" />
        </mxCell>
        <mxCell id="ZIUHDSg0vSBeBHE2A_sr-6" value="Période de temps tronquée" style="text;html=1;align=left;verticalAlign=middle;whiteSpace=wrap;rounded=0;fontFamily=Architects Daughter;fontSource=https%3A%2F%2Ffonts.googleapis.com%2Fcss%3Ffamily%3DArchitects%2BDaughter;" parent="tt-JTE62vg2d0CVdrw2t-2" vertex="1">
          <mxGeometry x="80" y="-20" width="170" height="40" as="geometry" />
        </mxCell>
        <mxCell id="QNOvUItwXMUCAhQ9Vl6e-81" value="&lt;font style=&quot;color: light-dark(rgb(108, 142, 191), rgb(237, 237, 237));&quot;&gt;1789 1799&lt;br&gt;&lt;a href=&quot;https://fr.wikipedia.org/wiki/Révolution_française&quot;&gt;Révolution française&lt;/a&gt;&lt;/font&gt;" style="text;html=1;align=right;verticalAlign=middle;whiteSpace=wrap;rounded=0;fontFamily=Architects Daughter;fontSource=https%3A%2F%2Ffonts.googleapis.com%2Fcss%3Ffamily%3DArchitects%2BDaughter;fontColor=light-dark(#666666, #EDEDED);" parent="tt-JTE62vg2d0CVdrw2t-2" vertex="1">
          <mxGeometry x="170" y="120" width="140" height="40" as="geometry" />
        </mxCell>
        <mxCell id="QNOvUItwXMUCAhQ9Vl6e-27" value="14 juillet 1789&amp;nbsp;&lt;br&gt;&lt;a href=&quot;https://fr.wikipedia.org/wiki/Prise_de_la_Bastille&quot;&gt;Prise de la bastille, point de départ de la révolution française&lt;/a&gt;" style="text;html=1;align=left;verticalAlign=middle;whiteSpace=wrap;rounded=0;fontFamily=Architects Daughter;fontSource=https%3A%2F%2Ffonts.googleapis.com%2Fcss%3Ffamily%3DArchitects%2BDaughter;fontColor=light-dark(#b95450, #EDEDED);" parent="tt-JTE62vg2d0CVdrw2t-2" vertex="1">
          <mxGeometry x="370" y="105" width="350" height="30" as="geometry" />
        </mxCell>
        <mxCell id="QNOvUItwXMUCAhQ9Vl6e-32" value="21 septembre 1792&lt;br&gt;&lt;a href=&quot;https://fr.wikipedia.org/wiki/Proclamation_de_l&#39;abolition_de_la_royauté&quot;&gt;Abolition de la monarchie constitutionnelle&lt;/a&gt;" style="text;html=1;align=left;verticalAlign=middle;whiteSpace=wrap;rounded=0;fontFamily=Architects Daughter;fontSource=https%3A%2F%2Ffonts.googleapis.com%2Fcss%3Ffamily%3DArchitects%2BDaughter;fontColor=light-dark(#b95450, #EDEDED);" parent="tt-JTE62vg2d0CVdrw2t-2" vertex="1">
          <mxGeometry x="370" y="230" width="230" height="30" as="geometry" />
        </mxCell>
        <mxCell id="QNOvUItwXMUCAhQ9Vl6e-34" value="22 septembre 1792&lt;br&gt;&lt;a href=&quot;https://fr.wikipedia.org/wiki/Première_République_(France)&quot;&gt;Création de la première république&lt;/a&gt;" style="text;html=1;align=left;verticalAlign=middle;whiteSpace=wrap;rounded=0;fontFamily=Architects Daughter;fontSource=https%3A%2F%2Ffonts.googleapis.com%2Fcss%3Ffamily%3DArchitects%2BDaughter;fontColor=light-dark(#b95450, #EDEDED);" parent="tt-JTE62vg2d0CVdrw2t-2" vertex="1">
          <mxGeometry x="370" y="265" width="230" height="30" as="geometry" />
        </mxCell>
        <mxCell id="QNOvUItwXMUCAhQ9Vl6e-36" value="18 mai 1804&lt;br&gt;&lt;a href=&quot;https://fr.wikipedia.org/wiki/Premier_Empire&quot;&gt;Premier Empire, Napoléon Empereur&lt;/a&gt;" style="text;html=1;align=left;verticalAlign=middle;whiteSpace=wrap;rounded=0;fontFamily=Architects Daughter;fontSource=https%3A%2F%2Ffonts.googleapis.com%2Fcss%3Ffamily%3DArchitects%2BDaughter;fontColor=light-dark(#b95450, #EDEDED);" parent="tt-JTE62vg2d0CVdrw2t-2" vertex="1">
          <mxGeometry x="370" y="384" width="230" height="30" as="geometry" />
        </mxCell>
        <mxCell id="QNOvUItwXMUCAhQ9Vl6e-51" value="20 mars 1815&lt;br&gt;&lt;a href=&quot;https://fr.wikipedia.org/wiki/Cent-Jours&quot;&gt;Début des cents jour, Retour de Napoléon 1er&lt;/a&gt;" style="text;html=1;align=left;verticalAlign=middle;whiteSpace=wrap;rounded=0;fontFamily=Architects Daughter;fontSource=https%3A%2F%2Ffonts.googleapis.com%2Fcss%3Ffamily%3DArchitects%2BDaughter;fontColor=light-dark(#b95450, #EDEDED);" parent="tt-JTE62vg2d0CVdrw2t-2" vertex="1">
          <mxGeometry x="370" y="545" width="260" height="30" as="geometry" />
        </mxCell>
        <mxCell id="QNOvUItwXMUCAhQ9Vl6e-44" value="6 avril 1814&lt;br&gt;&lt;a href=&quot;https://fr.wikipedia.org/wiki/Première_Restauration&quot;&gt;Première Restauration, Louis XVIII&lt;/a&gt;" style="text;html=1;align=left;verticalAlign=middle;whiteSpace=wrap;rounded=0;fontFamily=Architects Daughter;fontSource=https%3A%2F%2Ffonts.googleapis.com%2Fcss%3Ffamily%3DArchitects%2BDaughter;fontColor=light-dark(#b95450, #EDEDED);" parent="tt-JTE62vg2d0CVdrw2t-2" vertex="1">
          <mxGeometry x="370" y="505" width="230" height="30" as="geometry" />
        </mxCell>
        <mxCell id="QNOvUItwXMUCAhQ9Vl6e-55" value="8 juillet 1815&lt;br&gt;&lt;a href=&quot;https://fr.wikipedia.org/wiki/Seconde_Restauration&quot;&gt;Seconde Restauration, retour de Louis XVIII&lt;/a&gt;" style="text;html=1;align=left;verticalAlign=middle;whiteSpace=wrap;rounded=0;fontFamily=Architects Daughter;fontSource=https%3A%2F%2Ffonts.googleapis.com%2Fcss%3Ffamily%3DArchitects%2BDaughter;fontColor=light-dark(#b95450, #EDEDED);" parent="tt-JTE62vg2d0CVdrw2t-2" vertex="1">
          <mxGeometry x="370" y="585" width="260" height="30" as="geometry" />
        </mxCell>
        <mxCell id="QNOvUItwXMUCAhQ9Vl6e-56" value="9 août 1830&lt;br&gt;&lt;a href=&quot;https://fr.wikipedia.org/wiki/Monarchie_de_Juillet&quot;&gt;Monarchie de juillet, Louis Philippe 1er&lt;/a&gt;" style="text;html=1;align=left;verticalAlign=middle;whiteSpace=wrap;rounded=0;fontFamily=Architects Daughter;fontSource=https%3A%2F%2Ffonts.googleapis.com%2Fcss%3Ffamily%3DArchitects%2BDaughter;fontColor=light-dark(#b95450, #EDEDED);" parent="tt-JTE62vg2d0CVdrw2t-2" vertex="1">
          <mxGeometry x="370" y="705" width="260" height="30" as="geometry" />
        </mxCell>
        <mxCell id="QNOvUItwXMUCAhQ9Vl6e-62" value="24 février 1848&lt;br&gt;&lt;a href=&quot;https://fr.wikipedia.org/wiki/Deuxième_République_(France)&quot;&gt;Avènement de la seconde république&lt;/a&gt;" style="text;html=1;align=left;verticalAlign=middle;whiteSpace=wrap;rounded=0;fontFamily=Architects Daughter;fontSource=https%3A%2F%2Ffonts.googleapis.com%2Fcss%3Ffamily%3DArchitects%2BDaughter;fontColor=light-dark(#b95450, #EDEDED);" parent="tt-JTE62vg2d0CVdrw2t-2" vertex="1">
          <mxGeometry x="370" y="825" width="260" height="30" as="geometry" />
        </mxCell>
        <mxCell id="QNOvUItwXMUCAhQ9Vl6e-71" value="2 décembre 1852&lt;br&gt;&lt;a href=&quot;https://fr.wikipedia.org/wiki/Second_Empire&quot;&gt;Second Empire, Napoléon III&lt;/a&gt;" style="text;html=1;align=left;verticalAlign=middle;whiteSpace=wrap;rounded=0;fontFamily=Architects Daughter;fontSource=https%3A%2F%2Ffonts.googleapis.com%2Fcss%3Ffamily%3DArchitects%2BDaughter;fontColor=light-dark(#b95450, #EDEDED);" parent="tt-JTE62vg2d0CVdrw2t-2" vertex="1">
          <mxGeometry x="370" y="905" width="260" height="30" as="geometry" />
        </mxCell>
        <mxCell id="QNOvUItwXMUCAhQ9Vl6e-77" value="4 septembre 1870&lt;br&gt;&lt;a href=&quot;https://fr.wikipedia.org/wiki/Troisième_République_(France)&quot;&gt;Avènement de la troisième république&lt;/a&gt;" style="text;html=1;align=left;verticalAlign=middle;whiteSpace=wrap;rounded=0;fontFamily=Architects Daughter;fontSource=https%3A%2F%2Ffonts.googleapis.com%2Fcss%3Ffamily%3DArchitects%2BDaughter;fontColor=light-dark(#b95450, #EDEDED);" parent="tt-JTE62vg2d0CVdrw2t-2" vertex="1">
          <mxGeometry x="370" y="1025" width="260" height="30" as="geometry" />
        </mxCell>
        <mxCell id="QNOvUItwXMUCAhQ9Vl6e-98" value="1859&lt;br&gt;Charles Darwin (50 ans)&lt;br&gt;&lt;a href=&quot;https://fr.wikipedia.org/wiki/L%27Origine_des_espèces&quot;&gt;De l&#39;origine des espèces&lt;/a&gt;" style="text;html=1;align=left;verticalAlign=middle;whiteSpace=wrap;rounded=0;fontFamily=Architects Daughter;fontSource=https%3A%2F%2Ffonts.googleapis.com%2Fcss%3Ffamily%3DArchitects%2BDaughter;fontColor=light-dark(#9773a6, #EDEDED);textShadow=0;" parent="tt-JTE62vg2d0CVdrw2t-2" vertex="1">
          <mxGeometry x="559.55" y="931.5" width="150.45" height="49" as="geometry" />
        </mxCell>
        <mxCell id="QNOvUItwXMUCAhQ9Vl6e-83" value="&lt;font style=&quot;color: light-dark(rgb(108, 142, 191), rgb(237, 237, 237));&quot;&gt;27 28 29 juilllet 1830&lt;br&gt;&lt;a href=&quot;https://fr.wikipedia.org/wiki/Trois_Glorieuses&quot;&gt;Révolution de juillet, trois glorieuses&lt;br&gt;Chute de Charles X&lt;/a&gt;&lt;/font&gt;" style="text;html=1;align=right;verticalAlign=middle;whiteSpace=wrap;rounded=0;fontFamily=Architects Daughter;fontSource=https%3A%2F%2Ffonts.googleapis.com%2Fcss%3Ffamily%3DArchitects%2BDaughter;fontColor=light-dark(#666666, #EDEDED);" parent="tt-JTE62vg2d0CVdrw2t-2" vertex="1">
          <mxGeometry x="105" y="680" width="204.6" height="40" as="geometry" />
        </mxCell>
        <mxCell id="QNOvUItwXMUCAhQ9Vl6e-90" value="&lt;font style=&quot;color: light-dark(rgb(108, 142, 191), rgb(237, 237, 237));&quot;&gt;22 25 février 1848&lt;br&gt;&lt;a href=&quot;https://fr.wikipedia.org/wiki/Révolution_française_de_1848&quot;&gt;Révolution de février&lt;br&gt;Abdication de Louis Philippe 1er&lt;/a&gt;&lt;/font&gt;" style="text;html=1;align=right;verticalAlign=middle;whiteSpace=wrap;rounded=0;fontFamily=Architects Daughter;fontSource=https%3A%2F%2Ffonts.googleapis.com%2Fcss%3Ffamily%3DArchitects%2BDaughter;fontColor=light-dark(#666666, #EDEDED);" parent="tt-JTE62vg2d0CVdrw2t-2" vertex="1">
          <mxGeometry x="105" y="800" width="204.6" height="40" as="geometry" />
        </mxCell>
        <mxCell id="QNOvUItwXMUCAhQ9Vl6e-79" value="&lt;font style=&quot;color: light-dark(rgb(108, 142, 191), rgb(237, 237, 237));&quot;&gt;1861 - 1865&lt;br&gt;&lt;a href=&quot;https://fr.wikipedia.org/wiki/Guerre_de_Sécession&quot;&gt;🇺🇸 Guerre de sécession&lt;/a&gt;&lt;/font&gt;" style="text;html=1;align=right;verticalAlign=middle;whiteSpace=wrap;rounded=0;fontFamily=Architects Daughter;fontSource=https%3A%2F%2Ffonts.googleapis.com%2Fcss%3Ffamily%3DArchitects%2BDaughter;fontColor=light-dark(#666666, #EDEDED);" parent="tt-JTE62vg2d0CVdrw2t-2" vertex="1">
          <mxGeometry x="170" y="960" width="140" height="40" as="geometry" />
        </mxCell>
        <mxCell id="QNOvUItwXMUCAhQ9Vl6e-92" value="&lt;font style=&quot;color: light-dark(rgb(108, 142, 191), rgb(237, 237, 237));&quot;&gt;1870 1871&lt;br&gt;&lt;a href=&quot;https://fr.wikipedia.org/wiki/Guerre_franco-allemande_de_1870&quot;&gt;Guerre franco-Prussienne&lt;/a&gt;&lt;/font&gt;" style="text;html=1;align=right;verticalAlign=middle;whiteSpace=wrap;rounded=0;fontFamily=Architects Daughter;fontSource=https%3A%2F%2Ffonts.googleapis.com%2Fcss%3Ffamily%3DArchitects%2BDaughter;fontColor=light-dark(#666666, #EDEDED);" parent="tt-JTE62vg2d0CVdrw2t-2" vertex="1">
          <mxGeometry x="130" y="1010" width="180" height="40" as="geometry" />
        </mxCell>
        <mxCell id="ZIUHDSg0vSBeBHE2A_sr-4" value="Frise Chronologique historique" style="text;html=1;align=center;verticalAlign=middle;whiteSpace=wrap;rounded=0;fontFamily=Architects Daughter;fontSource=https%3A%2F%2Ffonts.googleapis.com%2Fcss%3Ffamily%3DArchitects%2BDaughter;fontSize=21;fontStyle=1" parent="tt-JTE62vg2d0CVdrw2t-2" vertex="1">
          <mxGeometry x="40" y="-290" width="680" height="40" as="geometry" />
        </mxCell>
      </root>
    </mxGraphModel>
  </diagram>
</mxfile>
